<svg id="Layer_30" enable-background="new 0 0 383.999 495.996" viewBox="0 0 383.999 495.996" xmlns="http://www.w3.org/2000/svg"><g><g><g><path d="m351.269 150.826c1.1 20.24.98 41.84-.5 64.28-48.18-4.52-68.96-19.53-69.52-19.95-2.44-1.92-5.35-3.09-8.43-3.37-5.34-.5-10.55 1.69-13.92 5.86-2.69 3.32-3.93 7.49-3.48 11.74.44 4.25 2.52 8.07 5.84 10.76 2.67 2.16 27.78 21.3 86.47 26.82-1.09 8.5-2.37 16.84-3.73 25.03l-39.02 15.01c-9.25 3.56-18.32 7.53-27.18 11.89l-4.33-2.16c-15.21-7.61-31.62-12.35-48.42-14.06-4.04-25.58-10.8-53.33-20.3-81.92-1.67-5.02-3.42-10.06-5.25-15.12-1.52-4.19-3.08-8.34-4.67-12.43 19.7-157.97 54.46-168.41 95.04-164.63 28.83 2.68 50.23 46.38 58.44 109.62-40.1-5.58-57.65-18.24-58.17-18.63-2.43-1.92-5.34-3.08-8.42-3.37-5.34-.5-10.55 1.69-13.92 5.86-2.69 3.32-3.93 7.49-3.48 11.74.44 4.25 2.52 8.07 5.84 10.76 2.59 2.1 26.24 20.13 81.11 26.27z" fill="#cf9e76"></path></g><g><path d="m204.749 200.756c9.5 28.59 16.26 56.34 20.3 81.92-7.42-.76-14.91-.92-22.41-.48l-14.1.83-30.05-20.04c-14.67-9.77-31.89-14.99-49.52-14.99-11.83 0-23.43 2.35-34.15 6.79-5.82 2.41-11.37 5.43-16.58 9.04l-.01-.01c-3.17-7.69-6.22-15.58-9.15-23.64-68.17-188.02-39.95-215.27 1.59-230.33 27.22-9.87 65.22 20.53 99.62 74.22-38.66 12.06-59.93 8.09-60.56 7.96-3.02-.7-6.15-.51-9.06.54-5.04 1.83-8.82 6.04-10.09 11.24-1.02 4.15-.36 8.45 1.86 12.11 2.21 3.65 5.72 6.22 9.87 7.24 3.24.79 32.32 7.01 84.57-10.84 9.61 17.83 18.72 37.42 26.96 58.35-45.51 16.46-70.7 11.75-71.39 11.61-3.02-.7-6.15-.51-9.06.54-5.04 1.83-8.82 6.04-10.09 11.24-1.02 4.15-.36 8.45 1.86 12.11 2.21 3.65 5.72 6.22 9.87 7.24 3.34.82 34.24 7.42 89.72-12.65z" fill="#cf9e76"></path></g><g><path d="m348.309 118.196c1.36 10.38 2.35 21.29 2.96 32.63-54.87-6.14-78.52-24.17-81.11-26.27-3.32-2.69-5.4-6.51-5.84-10.76-.45-4.25.79-8.42 3.48-11.74 3.37-4.17 8.58-6.36 13.92-5.86 3.08.29 5.99 1.45 8.42 3.37.52.39 18.07 13.05 58.17 18.63z" fill="#d3a06c"></path></g><g><path d="m350.769 215.106c-.35 5.27-.77 10.59-1.27 15.95-.5 5.37-1.1 10.67-1.77 15.91-58.69-5.52-83.8-24.66-86.47-26.82-3.32-2.69-5.4-6.51-5.84-10.76-.45-4.25.79-8.42 3.48-11.74 3.37-4.17 8.58-6.36 13.92-5.86 3.08.28 5.99 1.45 8.43 3.37.56.42 21.34 15.43 69.52 19.95z" fill="#d3a06c"></path></g><g><path d="m199.499 185.636c1.83 5.06 3.58 10.1 5.25 15.12-55.48 20.07-86.38 13.47-89.72 12.65-4.15-1.02-7.66-3.59-9.87-7.24-2.22-3.66-2.88-7.96-1.86-12.11 1.27-5.2 5.05-9.41 10.09-11.24 2.91-1.05 6.04-1.24 9.06-.54.69.14 25.88 4.85 71.39-11.61.33.84.66 1.69.99 2.54 1.59 4.09 3.15 8.24 4.67 12.43z" fill="#d3a06c"></path></g><g><path d="m150.289 84.066c5.65 8.81 11.2 18.25 16.59 28.25-52.25 17.85-81.33 11.63-84.57 10.84-4.15-1.02-7.66-3.59-9.87-7.24-2.22-3.66-2.88-7.96-1.86-12.11 1.27-5.2 5.05-9.41 10.09-11.24 2.91-1.05 6.04-1.24 9.06-.54.63.13 21.9 4.1 60.56-7.96z" fill="#d3a06c"></path></g><g><path d="m277.759 429.926 66.24 18.07s-72 40-144 40-112-40-112-40c26.17-15.7 56.12-24 86.65-24h58.8c14.97 0 29.87 2 44.31 5.93z" fill="#ffc729"></path></g><g><path d="m209.889 343.566c-6.59 5.62-12.97 11.51-19.12 17.66l-3.05 3.05c-2.38 2.38-3.72 5.61-3.72 8.97 0 3.11 1.12 5.98 3 8.21 1.89 2.22 4.54 3.8 7.6 4.31l6.49 1.08c51.85 8.64 100.86 29.61 142.91 61.15l-66.24-18.07c-14.44-3.93-29.34-5.93-44.31-5.93h-58.8c-30.53 0-60.48 8.3-86.65 24l-64-152 21.86-21.86c3.83-3.83 7.98-7.28 12.38-10.31 5.21-3.61 10.76-6.63 16.58-9.04 10.72-4.44 22.32-6.79 34.15-6.79 17.63 0 34.85 5.22 49.52 14.99l30.05 20.04 14.1-.83c7.5-.44 14.99-.28 22.41.48 16.8 1.71 33.21 6.45 48.42 14.06l4.33 2.16c-24.4 12.02-47.21 27.02-67.91 44.67z" fill="#ffeaa7"></path></g><g><path d="m375.999 287.996v9.21c0 25.97-2.72 51.81-8.09 77.07-5.36 25.28-13.36 49.98-23.91 73.72-42.05-31.54-91.06-52.51-142.91-61.15l-6.49-1.08c-3.06-.51-5.71-2.09-7.6-4.31-1.88-2.23-3-5.1-3-8.21 0-3.36 1.34-6.59 3.72-8.97l3.05-3.05c6.15-6.15 12.53-12.04 19.12-17.66 20.7-17.65 43.51-32.65 67.91-44.67 8.86-4.36 17.93-8.33 27.18-11.89l39.02-15.01z" fill="#fcd770"></path></g></g><path d="m352.841 267.472c2.141-13.451 3.626-24.907 4.628-35.672 5.434-58.368 2.09-114.147-9.413-157.062-12.193-45.49-32.595-71.817-57.447-74.13-21.418-1.995-43.818-.362-62.518 24.861-16.213 21.869-28.182 59.623-37.151 117.636-17.34-38.727-37.845-72.752-59.422-98.237-30.431-35.944-60.112-51.053-83.578-42.546-21.993 7.973-42.927 20.387-47.152 56.907-4.262 36.832 8.694 95.196 40.773 183.675 2.21 6.094 4.532 12.185 6.928 18.179-2.879 2.295-5.649 4.76-8.291 7.401l-25.66 25.66 66.695 158.402 1.108 1.108c1.729 1.729 43.198 42.343 117.657 42.343 73.232 0 144.872-39.333 147.885-41.007l2.338-1.299 1.087-2.445c21.691-48.805 32.689-100.631 32.689-154.04v-14.153zm-10.151-125.823c-46.757-6.878-66.624-22.597-67.5-23.308-1.659-1.344-2.696-3.254-2.918-5.378-.223-2.126.395-4.211 1.739-5.871 1.688-2.084 4.292-3.177 6.965-2.931 1.538.144 2.993.727 4.208 1.687l.215.165c.748.55 17.929 12.925 55.741 19.177.617 5.376 1.131 10.87 1.55 16.459zm-1.956 96.504c-51.726-6.27-73.498-23.459-74.442-24.226-1.659-1.343-2.695-3.253-2.918-5.378s.395-4.21 1.74-5.87c1.688-2.084 4.292-3.181 6.966-2.931 1.537.143 2.991.726 4.207 1.686l.218.167c.877.645 20.968 15.078 65.725 20.62-.213 2.693-.44 5.391-.692 8.097-.241 2.582-.508 5.186-.804 7.835zm-51.609-221.614c17.445 1.624 33.292 24.347 43.476 62.342 2.487 9.278 4.571 19.206 6.252 29.658-29.321-5.554-42.959-14.712-43.913-15.374-3.614-2.806-7.925-4.511-12.481-4.936-8.005-.737-15.817 2.541-20.88 8.79-4.035 4.981-5.889 11.235-5.22 17.613.669 6.375 3.781 12.108 8.758 16.14 4.23 3.429 27.265 20.256 78.505 27.16.617 15.554.504 31.742-.348 48.299-38.556-4.922-56.123-16.711-57.233-17.481-3.615-2.807-7.926-4.512-12.48-4.935-8.013-.749-15.817 2.54-20.88 8.79-4.036 4.981-5.89 11.236-5.22 17.613.669 6.376 3.781 12.109 8.758 16.14 4.446 3.604 28.553 21.149 82.481 27.667-.552 3.847-1.169 7.88-1.857 12.151l-34.733 13.359c-8.263 3.178-16.358 6.658-24.278 10.433l-.783-.392c-14.208-7.104-29.452-11.837-45.081-14.092-5.1-29.632-13.681-61.499-24.947-92.573-1.304-3.597-2.639-7.166-4-10.708 20.471-161.764 56.851-158.386 86.104-155.664zm-97.145 171.827c.896 2.47 1.768 4.947 2.628 7.425-49.47 16.397-76.495 10.133-77.676 9.844-2.074-.508-3.826-1.793-4.934-3.62-1.108-1.828-1.439-3.977-.931-6.052.638-2.605 2.526-4.707 5.05-5.622 1.451-.526 3.015-.62 4.526-.269l.265.057c1.07.209 25.381 4.698 68.242-9.386.957 2.528 1.903 5.067 2.83 7.623zm-36.777-80.69c-45.219 13.721-69.899 7.978-70.993 7.71-2.073-.508-3.826-1.793-4.934-3.62-1.108-1.828-1.439-3.977-.931-6.052.638-2.605 2.526-4.707 5.05-5.622 1.452-.526 3.016-.62 4.525-.269l.268.057c.91.179 21.736 4.04 58.594-6.43 2.851 4.599 5.658 9.349 8.421 14.226zm-98.6 129.773c-30.775-84.88-43.833-142.575-39.922-176.382 3.07-26.533 15.786-36.117 36.713-43.704 16.467-5.974 40.495 7.821 65.913 37.843 6.207 7.331 12.326 15.422 18.304 24.159-28.878 7.48-45.119 5.018-46.276 4.825-4.464-.997-9.091-.701-13.393.859-7.564 2.743-13.223 9.044-15.137 16.856-1.525 6.227-.535 12.674 2.791 18.157 3.325 5.481 8.584 9.34 14.807 10.863 2.347.575 9.158 1.959 20.318 1.959 13.999 0 34.848-2.19 62.272-10.876 7.192 13.804 13.993 28.491 20.283 43.828-36.991 12-57.906 8.823-59.219 8.603-4.467-.995-9.094-.7-13.394.859-7.564 2.742-13.223 9.043-15.137 16.856-1.526 6.227-.535 12.675 2.791 18.157 3.325 5.481 8.584 9.339 14.805 10.862 2.402.589 9.225 1.97 20.356 1.969 14.661 0 36.817-2.415 66.163-12.164 6.752 21.367 12.112 42.725 15.814 63.062-4.421-.139-8.854-.095-13.285.165l-11.425.672-27.824-18.548c-16.03-10.687-34.686-16.335-53.95-16.335-16.658 0-32.674 4.166-46.868 11.994-1.89-4.811-3.735-9.671-5.5-14.539zm-23.143 60.4 18.052-18.052c15.348-15.348 35.755-23.801 57.46-23.801 16.096 0 31.682 4.719 45.075 13.647l10.193 6.795-38.123 2.242c-12.077.709-23.908-3.788-32.462-12.342l-11.313 11.313c11.783 11.783 28.084 17.978 44.715 17.001l76.053-4.474c19.319-1.137 38.661 2.026 56.575 9.154-18.645 10.326-36.21 22.394-52.596 36.134-103.789-3.502-124.015-23.71-137.433-37.128l-11.313 11.313c14.405 14.405 35.732 35.725 131.737 41.076-1.666 1.6-3.33 3.203-4.968 4.842l-3.054 3.054c-3.907 3.907-6.059 9.101-6.059 14.626 0 10.153 7.269 18.734 17.284 20.403l6.489 1.082c32.759 5.46 64.604 16.1 94.107 31.299l-14.017-3.823c-15.124-4.125-30.741-6.216-46.417-6.216h-58.799c-28.898 0-57.309 7.127-82.75 20.641zm68.727 151.456c22.412-11.347 47.235-17.309 72.46-17.309h58.799c14.255 0 28.456 1.902 42.208 5.652l45.756 12.479c-25.608 11.525-73.84 29.869-121.409 29.869-49.232 0-82.982-19.808-97.814-30.691zm265.812-152.1c0 47.846-9.214 94.364-27.406 138.431-41.08-28.89-88.642-48.425-138.19-56.683l-6.489-1.082c-2.269-.378-3.915-2.322-3.915-4.621 0-1.251.487-2.428 1.372-3.313l3.054-3.054c31.871-31.871 69.361-56.234 111.429-72.414l35.724-13.74 24.421 12.211z"></path></g></svg>